<?xml version="1.0" encoding="UTF-8" standalone="no"?>
<!-- Uploaded to: SVG Repo, www.svgrepo.com, Generator: SVG Repo Mixer Tools -->

<svg
   version="1.1"
   id="_x32_"
   width="800px"
   height="800px"
   viewBox="0 0 512 512"
   xml:space="preserve"
   sodipodi:docname="chain_dark.svg"
   inkscape:version="1.2.2 (732a01da63, 2022-12-09)"
   xmlns:inkscape="http://www.inkscape.org/namespaces/inkscape"
   xmlns:sodipodi="http://sodipodi.sourceforge.net/DTD/sodipodi-0.dtd"
   xmlns="http://www.w3.org/2000/svg"
   xmlns:svg="http://www.w3.org/2000/svg"><defs
   id="defs15" /><sodipodi:namedview
   id="namedview13"
   pagecolor="#ffffff"
   bordercolor="#000000"
   borderopacity="0.25"
   inkscape:showpageshadow="2"
   inkscape:pageopacity="0.0"
   inkscape:pagecheckerboard="0"
   inkscape:deskcolor="#d1d1d1"
   showgrid="false"
   inkscape:zoom="0.2590625"
   inkscape:cx="-247.04463"
   inkscape:cy="-119.66224"
   inkscape:window-width="1920"
   inkscape:window-height="1009"
   inkscape:window-x="-8"
   inkscape:window-y="1072"
   inkscape:window-maximized="1"
   inkscape:current-layer="g10" />
<style
   type="text/css"
   id="style2">
<![CDATA[
	.st0{fill:#000000;}
]]>
</style>
<g
   id="g10">
	<path
   class="st0"
   d="M278.172,297.375l-51.203,51.188c0.016,0.594,0.031,1.188,0.031,1.781c0,8.406-1.594,16.781-4.766,24.625   c-3.203,7.813-7.922,15.156-14.375,21.563l-33.672,33.719c-6.453,6.438-13.766,11.156-21.609,14.344   c-7.859,3.188-16.219,4.781-24.609,4.781c-8.375,0-16.75-1.594-24.594-4.75c-7.844-3.219-15.156-7.938-21.625-14.375   c-6.438-6.438-11.156-13.75-14.344-21.594s-4.781-16.219-4.781-24.625c0-8.375,1.594-16.75,4.781-24.594   s7.906-15.156,14.344-21.625l33.719-33.688c6.438-6.406,13.734-11.156,21.594-14.344c7.828-3.188,16.219-4.781,24.594-4.781   c0.594,0,1.188,0.031,1.766,0.063l51.203-51.234c-1.594-0.734-3.203-1.422-4.844-2.078c-15.422-6.25-31.781-9.375-48.125-9.375   s-32.719,3.125-48.125,9.375c-15.422,6.25-29.906,15.688-42.359,28.094l-33.688,33.719c-12.438,12.406-21.859,26.906-28.109,42.344   S0,367.688,0,384.031s3.125,32.719,9.375,48.156c6.25,15.406,15.672,29.906,28.109,42.313   c12.422,12.469,26.922,21.906,42.344,28.125c15.438,6.281,31.797,9.375,48.141,9.375c16.359,0,32.719-3.094,48.141-9.375   c15.422-6.219,29.922-15.656,42.344-28.125l33.703-33.656c12.422-12.469,21.844-26.938,28.109-42.344   c6.266-15.469,9.359-31.813,9.375-48.156c-0.016-16.313-3.109-32.688-9.375-48.156   C279.594,300.594,278.891,298.969,278.172,297.375z"
   id="path4"
   style="fill:#8953e0;fill-opacity:1;stroke-width:0;stroke-dasharray:none" />
	<path
   class="st0"
   d="M 502.62513,79.844 C 496.37514,64.406 486.95305,49.906 474.51611,37.485 462.09417,25.063 447.59406,15.626 432.1571,9.376 416.73411,3.125 400.3751,0 384.03113,0 c -16.34396,0 -32.719,3.125 -48.141,9.375 -15.42208,6.25 -29.92201,15.688 -42.34412,28.109 L 259.84294,71.187 C 247.42214,83.594 238,98.094 231.73397,113.531 c -6.26591,15.406 -9.35897,31.781 -9.35897,48.141 0,16.344 3.09406,32.703 9.35897,48.141 0.67199,1.625 1.35899,3.219 2.09408,4.828 l 51.20291,-51.203 c -0.0166,-0.578 -0.0322,-1.156 -0.0322,-1.766 0,-8.391 1.59417,-16.781 4.78104,-24.609 3.1879,-7.844 7.90606,-15.156 14.35894,-21.625 l 33.6731,-33.688 c 6.45317,-6.406 13.76615,-11.141 21.62509,-14.344 7.81301,-3.156 16.2029,-4.781 24.59407,-4.781 8.40585,0 16.74998,1.625 24.62498,4.781 7.81297,3.203 15.14086,7.938 21.59387,14.344 6.43805,6.469 11.15621,13.781 14.34395,21.625 3.15619,7.844 4.7812,16.219 4.7812,24.594 0,8.391 -1.62501,16.75 -4.7812,24.625 -3.18774,7.844 -7.9059,15.156 -14.34395,21.594 l -33.68789,33.688 c -6.43808,6.438 -13.76615,11.156 -21.62509,14.344 -7.82797,3.188 -16.2029,4.781 -24.59402,4.781 -0.59401,0 -1.18806,-0.016 -1.76605,-0.031 l -51.20287,51.219 c 1.59385,0.719 3.20307,1.422 4.81292,2.063 15.45306,6.281 31.81301,9.406 48.15604,9.406 16.34297,0 32.719,-3.125 48.12514,-9.406 15.42198,-6.25 29.90599,-15.672 42.35894,-28.094 L 474.515,218.455 c 12.43792,-12.422 21.85902,-26.922 28.10895,-42.359 6.24997,-15.406 9.37507,-31.781 9.37507,-48.125 0,-16.344 -3.12406,-32.721 -9.37403,-48.127 z"
   id="path6"
   style="fill:#8953e0;fill-opacity:1;stroke-width:0;stroke-dasharray:none" />
	<path
   class="st0"
   d="M160.219,351.781c12.234,12.25,32.063,12.25,44.281,0L351.781,204.5c12.219-12.219,12.25-32.031,0-44.281   c-12.234-12.219-32.063-12.219-44.281,0L160.219,307.531C148,319.75,148,339.563,160.219,351.781z"
   id="path8"
   style="fill:#8953e0;fill-opacity:1;stroke-width:0;stroke-dasharray:none" />
</g>
</svg>
