<?xml version="1.0" encoding="UTF-8" standalone="no"?>
<!-- Created with Inkscape (http://www.inkscape.org/) -->

<svg
   width="210mm"
   height="297mm"
   viewBox="0 0 210 297"
   version="1.1"
   id="svg5"
   inkscape:version="1.2.2 (732a01da63, 2022-12-09)"
   sodipodi:docname="logo.svg"
   xml:space="preserve"
   xmlns:inkscape="http://www.inkscape.org/namespaces/inkscape"
   xmlns:sodipodi="http://sodipodi.sourceforge.net/DTD/sodipodi-0.dtd"
   xmlns:xlink="http://www.w3.org/1999/xlink"
   xmlns="http://www.w3.org/2000/svg"
   xmlns:svg="http://www.w3.org/2000/svg"><sodipodi:namedview
     id="namedview7"
     pagecolor="#ffffff"
     bordercolor="#000000"
     borderopacity="0.25"
     inkscape:showpageshadow="2"
     inkscape:pageopacity="0.0"
     inkscape:pagecheckerboard="0"
     inkscape:deskcolor="#d1d1d1"
     inkscape:document-units="mm"
     showgrid="false"
     inkscape:zoom="1.4770342"
     inkscape:cx="346.97909"
     inkscape:cy="488.81738"
     inkscape:window-width="1920"
     inkscape:window-height="1009"
     inkscape:window-x="-8"
     inkscape:window-y="-8"
     inkscape:window-maximized="1"
     inkscape:current-layer="layer1" /><defs
     id="defs2"><linearGradient
   inkscape:collect="always"
   id="linearGradient10863"><stop
     style="stop-color:#000000;stop-opacity:1;"
     offset="0.75632489"
     id="stop10859" /><stop
     style="stop-color:#000000;stop-opacity:0;"
     offset="1"
     id="stop10861" /></linearGradient><linearGradient
   inkscape:collect="always"
   id="linearGradient10021"><stop
     style="stop-color:#b600b7;stop-opacity:1;"
     offset="0"
     id="stop10017" /><stop
     style="stop-color:#0030ff;stop-opacity:1;"
     offset="1"
     id="stop10019" /></linearGradient><rect
   x="335.13103"
   y="429.91556"
   width="119.56615"
   height="66.681952"
   id="rect9980" /><linearGradient
   inkscape:collect="always"
   id="linearGradient9196"><stop
     style="stop-color:#00d9ff;stop-opacity:1;"
     offset="0"
     id="stop9192" /><stop
     style="stop-color:#ca2ce9;stop-opacity:0.56167978;"
     offset="1"
     id="stop9194" /></linearGradient><linearGradient
   inkscape:collect="always"
   id="linearGradient3273"><stop
     style="stop-color:#012070;stop-opacity:1;"
     offset="0"
     id="stop3269" /><stop
     style="stop-color:#8943ab;stop-opacity:1;"
     offset="1"
     id="stop3271" /></linearGradient><linearGradient
   inkscape:collect="always"
   xlink:href="#linearGradient3273"
   id="linearGradient3275"
   x1="103.15167"
   y1="55.550243"
   x2="104.99979"
   y2="172.05565"
   gradientUnits="userSpaceOnUse" /><linearGradient
   inkscape:collect="always"
   xlink:href="#linearGradient9196"
   id="linearGradient10002"
   gradientUnits="userSpaceOnUse"
   x1="-95.254966"
   y1="612.264"
   x2="129.13788"
   y2="612.264"
   gradientTransform="matrix(0.29030342,0,0,0.29030342,100.08163,-55.788222)" />
	
<linearGradient
   inkscape:collect="always"
   xlink:href="#linearGradient10021"
   id="linearGradient10023"
   x1="393.51218"
   y1="431.55304"
   x2="396.39807"
   y2="431.55304"
   gradientUnits="userSpaceOnUse"
   spreadMethod="pad" /><radialGradient
   inkscape:collect="always"
   xlink:href="#linearGradient10863"
   id="radialGradient10865"
   cx="106.06484"
   cy="123.46041"
   fx="106.06484"
   fy="123.46041"
   r="19.543175"
   gradientTransform="matrix(1,0,0,0.63039373,0,45.631743)"
   gradientUnits="userSpaceOnUse" /></defs><g
     inkscape:label="Laag 1"
     inkscape:groupmode="layer"
     id="layer1"><path
       id="path234"
       style="fill:#000000;stroke:url(#linearGradient3275);stroke-width:3;stroke-linecap:round;stroke-linejoin:round;stroke-dasharray:none;stroke-opacity:1;fill-opacity:1"
       d="M 104.99979 72.05555 A 50 50 0 0 0 54.999744 122.0556 A 50 50 0 0 0 104.99979 172.05565 A 50 50 0 0 0 121.90729 169.07495 L 121.77913 169.15608 L 149.55418 176.90135 L 140.41882 157.34698 L 140.28498 157.43173 A 50 50 0 0 0 154.99984 122.0556 A 50 50 0 0 0 104.99979 72.05555 z "
       inkscape:export-filename="appIcon.png"
       inkscape:export-xdpi="300"
       inkscape:export-ydpi="300" /><path
       class="st0"
       d="m 137.50731,129.62253 c 0,-1.74614 -0.49841,-3.38955 -1.35859,-4.77505 -0.56609,-0.91047 -1.28862,-1.70995 -2.13013,-2.36594 0.81002,-1.13916 1.35985,-2.49088 1.54309,-3.96972 0.0456,-0.36178 0.0665,-0.72253 0.0665,-1.07961 0,-2.16873 -0.80888,-4.19258 -2.16404,-5.73681 v 10e-4 c -0.98043,-1.12049 -2.25978,-1.99362 -3.72579,-2.49444 0.30933,-0.94082 0.4739,-1.92125 0.47517,-2.90981 v -0.006 -0.001 c -10e-4,-1.04113 -0.18209,-2.08696 -0.55555,-3.08491 -0.37244,-0.99923 -0.93725,-1.95045 -1.69369,-2.79552 -0.89167,-0.999101 -1.96328,-1.758962 -3.11996,-2.265495 -1.14259,-0.50082 -2.36936,-0.75631 -3.5997,-0.762151 -10e-4,0 -0.0152,0 -0.0362,0 v -0.0012 c -0.003,0.0012 -0.035,-0.0012 -0.0922,0.0023 -0.14476,8.71e-4 -0.28939,0.0058 -0.43415,0.01283 -0.4226,-1.529124 -1.23617,-2.899391 -2.32505,-3.987123 -0.81827,-0.819416 -1.79528,-1.482391 -2.88072,-1.942322 -1.06335,-0.450533 -2.234,-0.701451 -3.45253,-0.711992 -0.001,0 -0.0234,0 -0.0618,-0.0012 h -0.002 -0.0117 -10e-4 -0.001 -0.001 c -10e-4,0 -0.002,0 -0.002,0 -0.0164,0 -0.0409,0 -0.0771,0.0012 -1.21852,0.01155 -2.38689,0.2626 -3.45024,0.711992 -1.08671,0.459803 -2.06245,1.122778 -2.88186,1.942322 h 0.001 c -0.18679,0.186665 -0.36418,0.382852 -0.53459,0.584627 -0.16927,-0.2019 -0.34666,-0.397962 -0.53346,-0.584627 -0.81827,-0.819416 -1.79502,-1.482391 -2.88059,-1.942322 -1.06335,-0.450533 -2.232862,-0.701451 -3.452656,-0.711992 0,0 -0.02336,0 -0.0607,-0.0012 h -0.0024 -0.01156 -0.0024 -0.0011 c 0,0 0,0 -0.0011,0 -0.0013,0 -0.0013,0 -0.0024,0 -0.01524,0 -0.04089,0 -0.07593,0.0012 -1.218524,0.01155 -2.388032,0.2626 -3.45151,0.711992 -1.085446,0.459803 -2.062322,1.122778 -2.880597,1.942322 -1.089001,1.087732 -1.901435,2.456858 -2.325049,3.987123 -0.158728,-0.0094 -0.317456,-0.01396 -0.477453,-0.01396 v -0.0012 c 0,0 -0.01168,0 -0.02806,-0.0012 -0.0034,0.0012 -0.03149,0 -0.08406,0.0023 -1.220936,0.0093 -2.438317,0.263744 -3.572779,0.761007 -1.15681,0.506533 -2.228288,1.266522 -3.119958,2.266769 -0.769133,0.85903 -1.346903,1.83375 -1.729882,2.8585 -0.383868,1.02474 -0.574215,2.10219 -0.574215,3.17481 0,0 0,0.0175 0,0.0455 h 0.0011 c 0.0048,0.88253 0.141205,1.76137 0.400376,2.60873 -1.069192,0.4786 -2.028671,1.15554 -2.82574,1.98549 v -0.002 c -0.786784,0.81701 -1.420553,1.78004 -1.859404,2.84454 -0.438852,1.06449 -0.679356,2.23171 -0.679356,3.4444 0,0.10742 0.0024,0.21599 0.0058,0.32342 0.04216,1.201 0.319869,2.34714 0.785514,3.38484 0.19149,0.42603 0.415614,0.83352 0.667674,1.22208 -0.946655,0.68876 -1.756675,1.55478 -2.37635,2.55273 -0.860433,1.38538 -1.358839,3.02879 -1.358839,4.77492 0,1.24786 0.254473,2.44416 0.713134,3.53088 0.45993,1.08671 1.124048,2.06245 1.943466,2.88186 h -0.0011 c 0.817005,0.81599 1.789437,1.47782 2.871327,1.9375 0.446979,0.18908 0.91275,0.34209 1.393633,0.45879 -0.178537,0.71554 -0.269584,1.4462 -0.270854,2.17457 h -0.0011 v 0.0198 0.001 0.002 c 0,1.24671 0.256758,2.49203 0.765704,3.65112 0.508819,1.15783 1.270967,2.23058 2.27489,3.12352 0.859037,0.76443 1.831342,1.33992 2.853804,1.72163 1.006209,0.37472 2.062449,0.5638 3.116403,0.56837 0.01638,0.002 0.03035,0.002 0.04216,0.002 0.0023,0 0.0047,0 0.0069,0 h 0.0024 c 0,0 0,0 0.0011,0 h 0.02336 v -0.001 c 0.823989,-10e-4 1.646962,-0.11796 2.442888,-0.34437 0.291932,0.41078 0.616246,0.79719 0.972432,1.15312 v -0.001 c 0.818274,0.82056 1.795023,1.48354 2.880596,1.94347 1.061066,0.44825 2.228288,0.70031 3.443384,0.71085 0.02565,0.001 0.04901,0.002 0.08635,0.002 h 0.0011 c 0.0011,0 0.0011,0 0.0011,0 0.02692,0 0.03962,-0.001 0.03962,-0.001 1.232618,-0.005 2.414957,-0.2579 3.489987,-0.71199 1.08557,-0.45994 2.06245,-1.12278 2.8806,-1.94233 0.18679,-0.18666 0.36418,-0.38285 0.53345,-0.5859 0.17041,0.20305 0.34781,0.39924 0.5346,0.5859 0.81815,0.81942 1.79515,1.48239 2.88059,1.94233 1.0598,0.44824 2.22702,0.7003 3.44326,0.71084 0.0256,10e-4 0.049,0.002 0.0852,0.002 0,0 0,0 10e-4,0 0.001,0 0.001,0 0.001,0 0.001,0 0.001,0 0.001,0 0.0256,0 0.0385,-0.001 0.0385,-0.001 1.23262,-0.005 2.41622,-0.25791 3.49113,-0.712 1.08544,-0.45993 2.06244,-1.12277 2.88072,-1.94346 v 10e-4 c 0.35593,-0.35593 0.68037,-0.74234 0.9723,-1.15313 0.80418,0.22755 1.63401,0.34539 2.4674,0.34539 0,0 0.001,0 0.002,0 0.005,0 0.006,0 0.009,0 0.0221,0 0.035,-0.001 0.0361,-0.001 1.05408,-0.006 2.11147,-0.1939 3.11996,-0.57091 1.02246,-0.38044 1.99477,-0.95593 2.8538,-1.72036 1.0038,-0.89294 1.76595,-1.96569 2.2749,-3.12352 0.50424,-1.15096 0.761,-2.3846 0.76456,-3.62191 h 0.001 c 0,-0.0187 0,-0.0269 0,-0.0269 v -0.005 c 0,-0.73649 -0.0922,-1.47299 -0.27187,-2.19553 0.48075,-0.11669 0.94652,-0.2697 1.39363,-0.45878 1.08202,-0.4598 2.05432,-1.12164 2.87133,-1.9375 h -10e-4 c 0.8193,-0.81929 1.48354,-1.79515 1.94347,-2.88187 0.45917,-1.08671 0.71364,-2.28289 0.71364,-3.53074 z m -33.47207,-8.48687 c -0.66539,-0.22756 -1.3563,-0.34311 -2.06143,-0.34311 -0.65472,0 -1.30373,0.0992 -1.9328,0.29536 l -0.0245,0.009 c -0.862592,0.29993 -1.703089,0.45053 -2.499015,0.45053 -1.405188,0 -2.625108,-0.46564 -3.527318,-1.34348 -0.81599,-0.79478 -1.282777,-1.88264 -1.282777,-2.98561 0.0013,-0.98284 0.3619,-1.93534 1.042399,-2.75234 0.340821,-0.4085 0.285964,-1.01777 -0.121395,-1.35859 -0.172697,-0.14476 -0.392122,-0.22412 -0.618659,-0.22412 -0.285837,0 -0.556691,0.12609 -0.739926,0.34552 -0.977004,1.16836 -1.492806,2.54803 -1.491663,3.98839 0,1.62004 0.679229,3.21215 1.863975,4.36769 1.248999,1.22093 2.978754,1.89331 4.877904,1.89331 1.003669,0 2.051909,-0.18679 3.102435,-0.54984 0.43885,-0.13765 0.89294,-0.20647 1.3516,-0.20647 0.71567,0 1.42411,0.17397 2.06143,0.50539 v 8.32344 h -5.112436 c -0.53231,0 -0.964051,0.43301 -0.964051,0.96532 0,0.53104 0.431741,0.96405 0.964051,0.96405 h 5.112436 v 10.61116 c 0,0.79605 -0.1553,1.56874 -0.44939,2.28302 -0.003,0.007 -0.007,0.0117 -0.0105,0.0188 -0.22653,0.54501 -0.53218,1.04811 -0.90106,1.49624 -0.008,0.0117 -0.0175,0.0211 -0.0257,0.0303 -0.0537,0.0643 -0.1073,0.12724 -0.16215,0.18794 -0.0491,0.0548 -0.10044,0.10628 -0.15187,0.15873 -0.0164,0.0175 -0.0326,0.0362 -0.0502,0.0538 l -0.001,0.001 c -0.0115,0.0117 -0.0234,0.0211 -0.035,0.0328 -0.0571,0.0571 -0.11669,0.11441 -0.17625,0.16812 -0.0338,0.0303 -0.0678,0.0594 -0.10158,0.0886 -0.0385,0.0338 -0.077,0.0678 -0.11657,0.10031 -0.0584,0.0479 -0.11797,0.0933 -0.17867,0.14006 -0.0151,0.0117 -0.0302,0.0234 -0.0455,0.0351 -0.38298,0.28711 -0.80189,0.52749 -1.24658,0.71669 -0.1774,0.0747 -0.35835,0.14006 -0.542728,0.19835 -0.0036,0.001 -0.0047,0.001 -0.0071,0.002 -0.08051,0.0245 -0.161014,0.0479 -0.24279,0.0688 -0.01638,0.005 -0.03149,0.009 -0.04673,0.0127 -0.06984,0.0188 -0.139935,0.0328 -0.210029,0.049 -0.02806,0.006 -0.05486,0.0129 -0.08292,0.0188 -0.05956,0.0115 -0.120253,0.0211 -0.180823,0.0326 -0.0386,0.006 -0.07594,0.014 -0.115554,0.0187 -0.05359,0.009 -0.108443,0.0141 -0.162284,0.0211 -0.04432,0.006 -0.0899,0.0117 -0.13422,0.0164 -0.05587,0.006 -0.110729,0.009 -0.166855,0.0128 -0.04432,0.004 -0.08863,0.008 -0.133078,0.0105 -0.08762,0.005 -0.176252,0.006 -0.265012,0.006 -0.01295,0 -0.02565,0.001 -0.03848,0.001 -0.01409,0 -0.02921,-0.001 -0.04444,-0.001 -0.08635,0 -0.172696,-10e-4 -0.257901,-0.006 -0.0466,-0.002 -0.09219,-0.007 -0.138919,-0.0105 -0.05244,-0.004 -0.1073,-0.007 -0.161141,-0.0128 -0.0466,-0.005 -0.09219,-0.0117 -0.138919,-0.0164 -0.05244,-0.007 -0.106157,-0.0127 -0.158728,-0.0211 -0.03962,-0.005 -0.07936,-0.0128 -0.118982,-0.0198 -0.05956,-0.0104 -0.11784,-0.0198 -0.176252,-0.0315 -0.02921,-0.006 -0.05841,-0.014 -0.08762,-0.0198 -0.06882,-0.0152 -0.137776,-0.0303 -0.205458,-0.048 -0.01625,-0.005 -0.03378,-0.009 -0.05016,-0.014 -0.08051,-0.0211 -0.159743,-0.0432 -0.238092,-0.0677 -0.0046,-0.001 -0.0093,-0.002 -0.0127,-0.004 -0.183235,-0.0571 -0.363042,-0.12254 -0.538151,-0.19721 -0.445963,-0.18907 -0.863735,-0.42958 -1.24773,-0.71668 -0.01625,-0.0117 -0.03149,-0.0256 -0.04787,-0.0375 -0.05955,-0.0455 -0.11784,-0.0899 -0.175109,-0.13765 -0.04317,-0.0362 -0.08521,-0.0735 -0.128379,-0.10971 -0.02921,-0.0257 -0.0607,-0.0514 -0.0899,-0.0782 -0.07124,-0.0654 -0.142347,-0.13307 -0.212441,-0.20202 -0.0011,-0.002 -0.0024,-0.003 -0.0036,-0.005 -0.100316,-0.10044 -0.197203,-0.20533 -0.290536,-0.31403 -0.01524,-0.0187 -0.03149,-0.0361 -0.04673,-0.0549 -0.299933,-0.35707 -0.56139,-0.74932 -0.773958,-1.17179 -0.0034,-0.007 -0.0093,-0.0152 -0.01397,-0.0235 -0.406089,-0.81701 -0.623229,-1.72278 -0.623229,-2.66118 0,-0.7144 0.159871,-1.49052 0.451803,-2.18498 0.322155,-0.76698 0.798339,-1.42881 1.377252,-1.91198 0.198347,-0.16457 0.319869,-0.39682 0.343106,-0.65358 0.02349,-0.25688 -0.05486,-0.50666 -0.219425,-0.705 -0.183236,-0.21943 -0.453962,-0.3454 -0.74107,-0.3454 -0.225267,0 -0.444819,0.0794 -0.617515,0.22298 -0.815863,0.68038 -1.480108,1.59668 -1.922388,2.64835 -0.392121,0.93726 -0.599865,1.95032 -0.601135,2.92974 0,0.70729 0.0946,1.4076 0.280124,2.0881 -0.102856,0.0409 -0.207871,0.0805 -0.314028,0.11555 -0.02692,0.009 -0.056,0.0188 -0.08292,0.0269 -0.06641,0.0211 -0.131807,0.0409 -0.198346,0.0596 -0.0419,0.0117 -0.08406,0.0234 -0.127109,0.0351 -0.05257,0.0128 -0.105142,0.0257 -0.158729,0.0373 -0.04914,0.0129 -0.09816,0.0234 -0.147045,0.0328 -0.04787,0.0105 -0.09574,0.0187 -0.14476,0.0279 -0.0513,0.009 -0.102602,0.0175 -0.1553,0.0257 -0.04901,0.007 -0.09803,0.014 -0.147045,0.0198 -0.04902,0.006 -0.09917,0.0127 -0.148189,0.0187 -0.05956,0.005 -0.117967,0.009 -0.176251,0.0129 -0.04089,0.003 -0.08051,0.007 -0.121396,0.009 -0.09917,0.005 -0.199616,0.008 -0.299932,0.008 -1.4636,0 -2.874883,-0.53802 -3.969726,-1.51147 -1.274649,-1.13446 -2.004163,-2.76403 -2.005306,-4.47054 0,-0.0899 0.0013,-0.17854 0.0058,-0.26717 0.02222,-0.51124 0.112125,-1.02018 0.266155,-1.51516 0.0069,-0.0221 0.0127,-0.0455 0.02108,-0.0688 0.0023,-0.0105 0.007,-0.0211 0.01041,-0.0303 0.02464,-0.0747 0.05029,-0.1506 0.07835,-0.22527 0.0011,-0.004 0.0023,-0.006 0.0046,-0.009 0.03848,-0.1026 0.08051,-0.20418 0.126093,-0.30691 0.0047,-0.009 0.0094,-0.0187 0.01283,-0.0279 0.04775,-0.10514 0.09803,-0.20901 0.152887,-0.31403 0.0013,-0.002 0.0024,-0.004 0.0024,-0.004 0.225267,-0.43187 0.503105,-0.83567 0.830973,-1.20455 0.353646,-0.39797 0.317456,-1.00837 -0.08051,-1.36202 -0.176251,-0.15771 -0.403804,-0.24393 -0.639737,-0.24393 -0.275425,0 -0.539168,0.11911 -0.721261,0.32457 -0.05714,0.063 -0.111998,0.12838 -0.166854,0.19377 -0.08762,0.0152 -0.142475,0.0234 -0.187934,0.0279 -0.07594,0.007 -0.172823,0.009 -0.382979,0.009 -0.0047,0 -0.0093,0 -0.01397,0 -0.001,0 -0.0023,0 -0.0034,0 -0.102729,0 -0.204315,-0.004 -0.305901,-0.008 -0.0057,-0.001 -0.01283,-0.001 -0.01867,-0.002 -0.09448,-0.005 -0.187934,-0.0117 -0.280124,-0.0221 -0.01397,0 -0.02921,-0.004 -0.04317,-0.005 -0.08521,-0.009 -0.169267,-0.0198 -0.25333,-0.0328 -0.01524,-0.002 -0.02921,-0.005 -0.04317,-0.007 -0.08521,-0.0141 -0.169267,-0.0281 -0.252187,-0.0455 -0.0093,-0.002 -0.01752,-0.005 -0.02679,-0.007 -0.0899,-0.0187 -0.177521,-0.0385 -0.265012,-0.0607 -0.0013,-8.7e-4 -0.0024,-8.7e-4 -0.0036,-8.7e-4 -0.283679,-0.0736 -0.559103,-0.16812 -0.826401,-0.28139 -0.443423,-0.18794 -0.86018,-0.42958 -1.241889,-0.71441 -0.01638,-0.0115 -0.03149,-0.0245 -0.04787,-0.0373 -0.05956,-0.0455 -0.11784,-0.0899 -0.173966,-0.13765 -0.0419,-0.0339 -0.08279,-0.0701 -0.123681,-0.10628 -0.03149,-0.0257 -0.06298,-0.0536 -0.09333,-0.0805 -0.07238,-0.0664 -0.14349,-0.13308 -0.212442,-0.2019 -0.07009,-0.0701 -0.137776,-0.14248 -0.204187,-0.21486 -0.01409,-0.0164 -0.02806,-0.0328 -0.0433,-0.049 -0.04902,-0.0561 -0.09803,-0.11213 -0.144761,-0.16812 -0.03962,-0.049 -0.07695,-0.098 -0.115427,-0.14705 -0.01981,-0.0256 -0.04089,-0.0513 -0.05955,-0.0771 -0.05384,-0.0711 -0.103999,-0.14235 -0.154157,-0.21587 -0.0036,-0.006 -0.0069,-0.0105 -0.01041,-0.0152 -0.214854,-0.3186 -0.400376,-0.65828 -0.550977,-1.01434 -0.109713,-0.26133 -0.201902,-0.53104 -0.274282,-0.80887 -0.0023,-0.009 -0.0058,-0.0187 -0.0081,-0.0279 -0.01981,-0.0771 -0.03619,-0.15416 -0.05371,-0.23352 -0.0046,-0.0187 -0.0094,-0.0385 -0.01295,-0.0596 -0.01397,-0.0688 -0.02565,-0.13892 -0.03733,-0.20901 -0.0047,-0.0292 -0.01168,-0.0571 -0.01524,-0.0864 -0.0094,-0.0654 -0.01752,-0.13079 -0.02565,-0.19606 -0.0034,-0.0351 -0.0081,-0.0677 -0.01168,-0.1026 -0.0069,-0.0678 -0.01156,-0.13536 -0.01524,-0.20317 -0.0023,-0.0326 -0.0069,-0.0653 -0.0081,-0.098 -0.0046,-0.0992 -0.007,-0.20089 -0.007,-0.30349 0,-0.14121 0.0046,-0.28241 0.01511,-0.42133 0.0058,-0.0945 0.01752,-0.18793 0.02921,-0.28139 0.0048,-0.0443 0.0083,-0.0875 0.01409,-0.1308 0.01625,-0.12253 0.03848,-0.24393 0.06298,-0.36405 0.0036,-0.0141 0.0047,-0.0281 0.0071,-0.042 0.02793,-0.12838 0.05943,-0.25676 0.09562,-0.38171 0.0013,-0.006 0.0024,-0.013 0.0036,-0.0175 0.03606,-0.12495 0.07568,-0.24736 0.118982,-0.37003 0.0034,-0.008 0.0047,-0.0152 0.0081,-0.0234 0.04089,-0.11555 0.08762,-0.22755 0.135363,-0.33967 0.0071,-0.0152 0.01168,-0.0303 0.01867,-0.0443 0.04673,-0.10743 0.09917,-0.21244 0.153014,-0.31632 0.0094,-0.0188 0.01752,-0.0386 0.02679,-0.0573 0.06425,-0.12127 0.133077,-0.24038 0.205457,-0.35708 0.07124,-0.11441 0.14603,-0.22654 0.222981,-0.33498 0.385265,-0.53447 0.855608,-1.00252 1.391347,-1.3855 0.01054,-0.008 0.01981,-0.0163 0.03035,-0.0233 0.01867,-0.0128 0.03848,-0.0245 0.05714,-0.0373 0.203045,-0.13892 0.413201,-0.26742 0.632627,-0.38056 l 0.0024,-0.002 c 0.0069,-0.003 0.01397,-0.007 0.01981,-0.009 0.07352,-0.0385 0.148189,-0.0735 0.221712,-0.1073 0.04089,-0.0187 0.08051,-0.0373 0.122665,-0.056 0.0034,0 0.0069,-0.004 0.01041,-0.005 0.74945,-0.32571 1.545376,-0.49256 2.375334,-0.49256 1.355156,0 2.630949,0.4424 3.691887,1.27922 0.243934,0.2673 1.027161,1.089 2.19667,1.91654 0.815862,0.57676 1.654073,1.03885 2.493173,1.37154 1.071478,0.42603 2.145495,0.64203 3.193609,0.64203 0.531167,0 0.964177,-0.43301 0.964177,-0.96532 0,-0.53232 -0.43301,-0.96418 -0.964177,-0.96418 -0.801895,0 -1.636423,-0.17029 -2.482634,-0.50539 -1.223349,-0.48558 -2.253939,-1.23605 -2.902819,-1.78004 -0.368757,-0.31035 -0.655991,-0.5859 -0.8311,-0.76215 -0.09333,-0.0956 -0.165712,-0.17155 -0.213585,-0.22412 l -0.06057,-0.0677 -0.0339,-0.0385 c -0.01524,-0.0175 -0.03149,-0.0339 -0.05029,-0.048 l -0.03962,-0.0338 c -1.398331,-1.12748 -3.158435,-1.74969 -4.960696,-1.74969 -0.548437,0 -1.099415,0.0584 -1.639852,0.17397 -0.121395,-0.10502 -0.234663,-0.216 -0.345519,-0.32914 -0.04089,-0.0398 -0.08051,-0.0805 -0.120252,-0.12267 -0.03378,-0.0373 -0.06641,-0.0747 -0.100444,-0.112 -0.02921,-0.0338 -0.06057,-0.0688 -0.0899,-0.10387 -0.06298,-0.0737 -0.123681,-0.14946 -0.182093,-0.22653 -0.01168,-0.014 -0.02108,-0.0279 -0.03149,-0.042 -0.05029,-0.0664 -0.09917,-0.13423 -0.145776,-0.20305 -0.0093,-0.0128 -0.01752,-0.0256 -0.02692,-0.0396 -0.04775,-0.0711 -0.09448,-0.14235 -0.140062,-0.21701 -0.0058,-0.009 -0.01168,-0.0187 -0.01638,-0.0281 -0.04775,-0.0782 -0.09448,-0.15758 -0.137649,-0.23809 -0.0034,-0.006 -0.0058,-0.0105 -0.0093,-0.0162 -0.04559,-0.0863 -0.0899,-0.17283 -0.133077,-0.26032 0,0 0,-0.002 -0.0013,-0.003 -0.260314,-0.54513 -0.438851,-1.13001 -0.525326,-1.73458 -0.001,-0.006 -0.0023,-0.0117 -0.0023,-0.0117 -0.01295,-0.091 -0.02108,-0.1798 -0.03035,-0.26717 -0.0013,-0.0152 -0.0034,-0.0303 -0.0047,-0.0456 -0.0071,-0.0852 -0.01168,-0.17042 -0.01638,-0.25676 0,-0.0164 -0.0023,-0.0328 -0.0023,-0.0491 v -10e-4 c -0.0024,-0.0712 -0.0036,-0.14247 -0.0036,-0.21371 0,-0.0992 0.0024,-0.1972 0.0071,-0.29523 0.0013,-0.0328 0.0047,-0.0665 0.0071,-0.0992 0.0047,-0.0643 0.0081,-0.1285 0.01397,-0.19149 0.0036,-0.0396 0.01054,-0.0769 0.01397,-0.11669 0.0071,-0.0584 0.01397,-0.11556 0.02209,-0.17283 0.0048,-0.0373 0.01168,-0.0747 0.01752,-0.10971 0.01054,-0.0594 0.01981,-0.11898 0.03149,-0.17739 0.0057,-0.0315 0.01397,-0.063 0.02095,-0.0933 0.01295,-0.0643 0.02692,-0.12736 0.04203,-0.19034 0.0058,-0.0233 0.01283,-0.0455 0.01867,-0.0688 0.01867,-0.0701 0.03746,-0.1412 0.05841,-0.2113 0.0047,-0.0128 0.0094,-0.0279 0.01397,-0.0419 0.02451,-0.0784 0.04901,-0.1553 0.07695,-0.23238 0.0011,-0.006 0.0047,-0.0115 0.0058,-0.0174 0.03035,-0.0841 0.06197,-0.16812 0.09689,-0.25104 l 0.0011,-0.002 c 0.07124,-0.1751 0.151744,-0.34437 0.239235,-0.51123 0,0 0,0 0.0013,-0.001 0.04317,-0.0828 0.08863,-0.16343 0.135363,-0.24279 0.0034,-0.007 0.007,-0.0128 0.01054,-0.0187 0.04432,-0.0735 0.0899,-0.14717 0.136507,-0.21942 0.01054,-0.0151 0.02222,-0.0315 0.03276,-0.0477 0.04089,-0.0607 0.08165,-0.12139 0.124951,-0.18095 0.02451,-0.0351 0.05244,-0.0688 0.07822,-0.10273 0.03035,-0.0396 0.05955,-0.0805 0.09105,-0.12025 0.0513,-0.0643 0.103872,-0.12724 0.157585,-0.18908 0.0081,-0.009 0.01524,-0.0188 0.02222,-0.0269 0.06413,-0.0724 0.129522,-0.14349 0.196061,-0.21358 0.0024,-10e-4 0.0036,-0.003 0.0046,-0.005 0.08762,-0.0899 0.177522,-0.17625 0.269711,-0.26031 0.02451,-0.0221 0.04902,-0.0443 0.07467,-0.0664 0.196061,-0.17282 0.402661,-0.33498 0.621071,-0.48215 0.01397,-0.008 0.02794,-0.0175 0.0419,-0.0268 0.232251,-0.15403 0.476185,-0.2918 0.730657,-0.4132 0.0024,-10e-4 0.0047,-0.002 0.0058,-0.002 0.393392,-0.18667 0.811164,-0.33143 1.246587,-0.42844 0.0036,-0.001 0.0069,-0.002 0.01054,-0.003 0.354789,-0.0782 0.720118,-0.12609 1.090144,-0.13891 0.06768,-0.004 0.134221,-0.004 0.213585,-0.004 h 0.0011 c 0.308186,0 0.617516,0.0234 0.919734,0.0701 0.05016,0.007 0.09917,0.0117 0.148188,0.0117 0.47974,0 0.878973,-0.34438 0.953638,-0.81828 0.08051,-0.5252 -0.281392,-1.01891 -0.806592,-1.10068 -0.401518,-0.0617 -0.808878,-0.0933 -1.215095,-0.0933 -0.06654,0 -0.134221,10e-4 -0.200759,0.004 -0.04317,-0.0735 -0.08279,-0.14946 -0.121396,-0.22412 -0.04317,-0.0804 -0.08406,-0.16102 -0.122537,-0.24279 -0.01397,-0.0304 -0.02794,-0.0596 -0.04089,-0.091 -0.03974,-0.0875 -0.07822,-0.17397 -0.113268,-0.2626 -0.01054,-0.0268 -0.02108,-0.0549 -0.03035,-0.0816 -0.03505,-0.091 -0.06768,-0.1821 -0.09803,-0.27555 -0.0094,-0.0269 -0.01752,-0.056 -0.02565,-0.0828 -0.02794,-0.0922 -0.05486,-0.18337 -0.07822,-0.27556 -0.0094,-0.0338 -0.01638,-0.0654 -0.02451,-0.0992 -0.01981,-0.0876 -0.04089,-0.17511 -0.05727,-0.26374 -0.0094,-0.0443 -0.01524,-0.0876 -0.02336,-0.13079 -0.01295,-0.0794 -0.02565,-0.15759 -0.03619,-0.23695 -0.0081,-0.0643 -0.01397,-0.12851 -0.01981,-0.19391 -0.0058,-0.0596 -0.01283,-0.11911 -0.01638,-0.17968 -0.0081,-0.12495 -0.01282,-0.25091 -0.01282,-0.37815 v -0.002 c 0,-1.37852 0.474914,-2.70676 1.341188,-3.77011 0.0094,-0.0128 0.01981,-0.0245 0.03022,-0.0362 0.04787,-0.0583 0.09689,-0.1167 0.148316,-0.17397 0.03149,-0.035 0.06425,-0.0677 0.09562,-0.10146 0.04089,-0.0443 0.08178,-0.0888 0.123808,-0.13079 1.118208,-1.12519 2.647204,-1.7648 4.244008,-1.76607 0.0024,0 0.007,0 0.01041,0 0.102856,10e-4 0.204315,0.004 0.307043,0.009 0.03263,0.002 0.0654,0.005 0.09689,0.007 0.07809,0.006 0.157585,0.0129 0.235806,0.0211 0.02908,0.003 0.05829,0.007 0.08863,0.0105 0.102729,0.0127 0.206728,0.0279 0.309329,0.0455 0.0011,0.001 0.0034,0.001 0.0058,0.001 0.109713,0.0198 0.219426,0.0433 0.329139,0.0701 0.940813,0.22412 1.818515,0.67478 2.558442,1.32138 0.205458,0.23339 1.094843,1.22208 2.246955,2.24352 0.776116,0.68622 1.515027,1.25002 2.196669,1.6749 0.428439,0.26616 0.825132,0.4739 1.211413,0.63504 0.457518,0.19022 0.877829,0.30463 1.285062,0.34895 0.03619,0.005 0.07124,0.007 0.107427,0.007 0.492567,0 0.903357,-0.36889 0.958207,-0.85904 0.0281,-0.25562 -0.0443,-0.50767 -0.20533,-0.70856 -0.16114,-0.20191 -0.3911,-0.328 -0.647862,-0.35593 -0.215997,-0.0234 -0.477327,-0.0982 -0.757578,-0.21486 -0.483295,-0.19961 -1.061065,-0.54399 -1.671469,-0.99554 -0.908052,-0.67123 -1.762517,-1.47782 -2.319208,-2.0368 -0.316186,-0.31758 -0.573072,-0.59072 -0.7318,-0.76342 -0.08635,-0.0945 -0.15403,-0.16927 -0.199616,-0.21942 l -0.05016,-0.0583 -0.289521,0.25676 0.275552,-0.27187 -0.02451,-0.0281 -0.03263,-0.0338 -0.02933,-0.0257 c -0.589325,-0.52634 -1.248872,-0.95948 -1.964291,-1.287348 0.04901,-0.531169 0.167998,-1.042271 0.346662,-1.524297 0.0058,-0.01524 0.01168,-0.02921 0.01752,-0.04432 0.02451,-0.0654 0.05016,-0.129522 0.07695,-0.193775 0.01054,-0.0245 0.02222,-0.04901 0.03276,-0.07365 0.02336,-0.05371 0.0466,-0.107427 0.07111,-0.158729 0.01524,-0.03263 0.03149,-0.06298 0.04673,-0.0946 0.02222,-0.04546 0.04432,-0.0899 0.06768,-0.135235 0.01879,-0.03505 0.03962,-0.0701 0.05956,-0.106286 0.02108,-0.03847 0.04203,-0.07822 0.0654,-0.116824 0.02222,-0.03975 0.04673,-0.07695 0.07009,-0.115552 0.02108,-0.03378 0.04089,-0.06883 0.06311,-0.102602 0.02679,-0.04191 0.05486,-0.0828 0.08279,-0.124953 0.01981,-0.0292 0.03962,-0.05841 0.0607,-0.08749 0.03149,-0.04546 0.0654,-0.09105 0.09917,-0.136634 0.01752,-0.02337 0.03378,-0.0466 0.05143,-0.07009 0.04076,-0.0513 0.08165,-0.10273 0.122538,-0.151617 0.01397,-0.01637 0.02565,-0.03276 0.03848,-0.04902 0.05016,-0.05841 0.100443,-0.114409 0.150601,-0.17168 0.0071,-0.0071 0.01397,-0.01524 0.02108,-0.02221 0.05828,-0.06426 0.11784,-0.127237 0.179807,-0.189077 0.0701,-0.06883 0.141205,-0.136507 0.213585,-0.203047 0.02108,-0.01867 0.04317,-0.03619 0.06425,-0.05486 0.05016,-0.04546 0.101459,-0.0899 0.15403,-0.134219 0.04901,-0.03974 0.100443,-0.07937 0.151617,-0.11784 0.02349,-0.01867 0.048,-0.03848 0.07251,-0.05727 0.06997,-0.05244 0.142347,-0.102602 0.214727,-0.152885 0.0058,-0.0035 0.01054,-0.0081 0.01638,-0.01054 0.317456,-0.214854 0.657134,-0.400247 1.014335,-0.550848 0.171554,-0.07238 0.348948,-0.137778 0.528755,-0.193775 0.0081,-0.0036 0.01524,-0.0058 0.02209,-0.0082 0.07708,-0.02337 0.1553,-0.04546 0.232379,-0.06641 0.01867,-0.0047 0.03733,-0.0094 0.05714,-0.01524 0.06654,-0.01753 0.13422,-0.03149 0.202029,-0.04673 0.03022,-0.0058 0.05943,-0.01396 0.0899,-0.0198 0.05828,-0.01167 0.116697,-0.02108 0.176252,-0.03149 0.03962,-0.0069 0.07936,-0.01524 0.118982,-0.02096 0.05257,-0.0082 0.106285,-0.01295 0.158729,-0.0198 0.04673,-0.0058 0.09232,-0.01295 0.138919,-0.01753 0.05384,-0.0047 0.109712,-0.0081 0.163553,-0.01167 0.04546,-0.0034 0.0899,-0.0081 0.136506,-0.01042 0.08762,-0.0046 0.175109,-0.0058 0.26387,-0.007 0.01295,0 0.02565,0 0.0386,0 0.01511,0 0.02921,0 0.04432,0.0012 0.08635,0 0.172696,0.0012 0.259171,0.0058 0.0466,0.0023 0.09333,0.007 0.138919,0.01042 0.05371,0.0035 0.1073,0.0071 0.159998,0.01167 0.04775,0.0058 0.09448,0.01167 0.142347,0.01753 0.05143,0.0069 0.103872,0.01155 0.1553,0.0198 0.04089,0.0057 0.08165,0.01396 0.121395,0.02209 0.05841,0.0093 0.116824,0.01867 0.173966,0.03035 0.03022,0.0058 0.06057,0.01396 0.09219,0.02108 0.06654,0.01396 0.134221,0.02921 0.20076,0.04559 0.01867,0.0058 0.03733,0.01054 0.056,0.01524 0.07822,0.02096 0.155172,0.04317 0.231108,0.06641 0.0081,0.0023 0.01511,0.0047 0.02324,0.0082 0.179813,0.05587 0.356063,0.121268 0.530023,0.193775 0.35594,0.151619 0.69561,0.336125 1.01434,0.55085 0.004,0.0023 0.007,0.0046 0.0117,0.0082 0.0735,0.05003 0.14705,0.101461 0.21943,0.156317 0.0234,0.01637 0.0455,0.03504 0.0688,0.05257 0.0514,0.04076 0.10387,0.08051 0.1553,0.122537 0.0503,0.04089 0.098,0.08406 0.14705,0.127237 0.0234,0.02108 0.0467,0.03962 0.0712,0.0607 0.0712,0.06654 0.14349,0.134221 0.21232,0.203047 0.0701,0.07009 0.1379,0.142472 0.20431,0.214853 0.0281,0.03035 0.0549,0.06311 0.0818,0.09447 0.0362,0.04089 0.0724,0.08178 0.10628,0.122664 0.36889,0.448249 0.67339,0.95237 0.89993,1.496236 0.003,0.0058 0.007,0.01167 0.009,0.01878 0.29536,0.714275 0.45053,1.486964 0.45053,2.283016 v 21.318961 z m 30.37788,8.79035 c -0.002,0.0328 -0.006,0.0654 -0.008,0.0969 -0.003,0.0688 -0.008,0.13651 -0.0151,0.20432 -0.004,0.0338 -0.008,0.0664 -0.0117,0.10031 -0.008,0.0653 -0.0152,0.13308 -0.0257,0.19835 -0.003,0.0279 -0.009,0.056 -0.014,0.0841 -0.0117,0.0701 -0.0245,0.14235 -0.0386,0.21232 -0.003,0.0187 -0.008,0.0375 -0.0128,0.0561 -0.0164,0.0794 -0.0338,0.15873 -0.0549,0.23695 -10e-4,0.007 -0.003,0.0152 -0.006,0.0222 -0.0724,0.28012 -0.16456,0.55085 -0.27542,0.81345 -0.18908,0.44469 -0.43072,0.86373 -0.71682,1.24659 -0.0127,0.0175 -0.0279,0.0362 -0.0419,0.0549 -0.0432,0.0561 -0.0876,0.11327 -0.13308,0.16813 -0.0373,0.0467 -0.0771,0.091 -0.11682,0.13663 -0.0232,0.0269 -0.0467,0.0549 -0.0712,0.0818 -0.0654,0.0724 -0.13308,0.14349 -0.2019,0.21231 l -0.001,0.001 c -0.0105,0.009 -0.0211,0.0187 -0.0315,0.0292 -0.0583,0.0583 -0.11911,0.1167 -0.17968,0.17155 -0.0315,0.0281 -0.0643,0.056 -0.0957,0.0829 -0.0396,0.0361 -0.0805,0.0711 -0.12266,0.10616 -0.0559,0.0455 -0.11327,0.0899 -0.17029,0.13422 -0.0175,0.013 -0.035,0.0269 -0.0526,0.0409 -0.0747,0.0549 -0.1506,0.10971 -0.22755,0.16228 -10e-4,0 -10e-4,0.001 -0.002,0.001 -0.31632,0.21371 -0.65473,0.39923 -1.01078,0.55097 -0.26502,0.112 -0.53917,0.20546 -0.82285,0.27898 -0.002,0.001 -0.005,0.001 -0.007,0.002 -0.0876,0.0222 -0.17511,0.0422 -0.2626,0.0607 -0.009,0.002 -0.0198,0.005 -0.0292,0.007 -0.0829,0.0174 -0.16813,0.0315 -0.25219,0.0455 -0.014,0.002 -0.0279,0.005 -0.0419,0.007 -0.0841,0.013 -0.16926,0.0234 -0.25447,0.0328 -0.0141,0.001 -0.0281,0.005 -0.0433,0.005 -0.0922,0.0105 -0.18552,0.0175 -0.27898,0.0221 -0.007,10e-4 -0.014,10e-4 -0.0198,0.002 -0.10146,0.005 -0.20304,0.008 -0.30577,0.008 -0.001,0 -0.001,0 -0.002,0 -0.006,0 -0.0105,0 -0.0152,0 -0.10387,0 -0.18082,0 -0.23695,-0.002 -0.0724,-0.001 -0.10501,-0.005 -0.15771,-0.0129 -0.0455,-0.007 -0.10387,-0.0175 -0.18552,-0.0326 -0.0514,-0.062 -0.10388,-0.12267 -0.15772,-0.18323 -0.18209,-0.20546 -0.44583,-0.32457 -0.72126,-0.32457 -0.23568,0 -0.46336,0.0863 -0.63961,0.24393 -0.39796,0.35365 -0.43415,0.96405 -0.0805,1.36201 0.32799,0.36889 0.60456,0.77155 0.82983,1.20113 10e-4,0.002 0.002,0.005 0.003,0.007 0.0549,0.10502 0.10515,0.21003 0.15302,0.31505 0.005,0.008 0.008,0.0175 0.0117,0.0256 0.0467,0.10388 0.0899,0.20889 0.12952,0.31276 10e-4,10e-4 10e-4,0.004 0.002,0.005 0.007,0.0211 0.014,0.0409 0.0211,0.062 0.0234,0.0641 0.0477,0.12953 0.0688,0.19492 v 0.001 c 0.19492,0.59987 0.29181,1.22564 0.29181,1.84874 -0.001,1.59909 -0.64317,3.13063 -1.77064,4.24985 -0.0759,0.0747 -0.15403,0.14819 -0.23467,0.2207 -0.0688,0.0607 -0.13891,0.12025 -0.21015,0.17853 -1.06221,0.86018 -2.38702,1.33294 -3.75957,1.33294 -0.10044,0 -0.19962,-0.003 -0.29993,-0.008 -0.0398,-0.002 -0.0794,-0.006 -0.11911,-0.008 -0.0596,-0.005 -0.11911,-0.008 -0.17981,-0.014 -0.0479,-0.006 -0.0946,-0.0128 -0.14235,-0.0175 -0.0514,-0.007 -0.10387,-0.014 -0.1553,-0.0211 -0.049,-0.008 -0.098,-0.0164 -0.14704,-0.0257 -0.0514,-0.009 -0.10286,-0.0187 -0.15302,-0.0279 -0.0466,-0.0105 -0.0933,-0.0198 -0.13892,-0.0303 -0.0571,-0.014 -0.11441,-0.0269 -0.17155,-0.0422 -0.0386,-0.0105 -0.0771,-0.0208 -0.11441,-0.0314 -0.0724,-0.0198 -0.14476,-0.0422 -0.216,-0.0642 -0.0222,-0.008 -0.0443,-0.0141 -0.0665,-0.0222 -0.10615,-0.0351 -0.21231,-0.0747 -0.31745,-0.11683 0.18565,-0.68037 0.28012,-1.38068 0.28012,-2.0881 -10e-4,-0.76799 -0.13308,-1.57814 -0.38285,-2.3427 -0.42717,-1.30373 -1.16722,-2.42308 -2.14067,-3.23551 -0.55568,-0.46336 -1.18246,-0.82285 -1.8641,-1.06805 -0.72837,-0.26133 -1.52443,-0.39441 -2.3648,-0.39441 -0.53231,0 -0.96532,0.43187 -0.96532,0.96405 0,0.53219 0.43301,0.96405 0.96405,0.96405 0.80888,0.001 1.54182,0.16356 2.18156,0.4833 0.82869,0.41549 1.51617,1.11122 1.98893,2.0147 0.41675,0.79364 0.65472,1.74614 0.65358,2.61457 0,0.9384 -0.21702,1.84404 -0.62323,2.66117 -0.005,0.007 -0.009,0.0164 -0.014,0.0235 -0.21245,0.42247 -0.4739,0.81586 -0.77383,1.17294 -0.0152,0.0175 -0.0303,0.035 -0.0467,0.0526 -0.0933,0.10971 -0.19149,0.21701 -0.29295,0.3186 -10e-4,0 -10e-4,0 -10e-4,0 v 8.7e-4 c -0.0117,0.0117 -0.0234,0.0211 -0.035,0.0328 -0.0584,0.0571 -0.11669,0.11441 -0.17739,0.16812 -0.0328,0.0303 -0.0678,0.0594 -0.10159,0.0886 -0.0385,0.0338 -0.0759,0.0678 -0.11555,0.10031 -0.0596,0.0479 -0.11911,0.0933 -0.17854,0.14006 -0.0152,0.0117 -0.0303,0.0234 -0.0455,0.0351 -0.38399,0.28711 -0.80189,0.52749 -1.24773,0.71669 -0.17752,0.0747 -0.35834,0.14006 -0.54272,0.19835 -0.002,0.001 -0.005,0.001 -0.007,0.002 -0.0794,0.0245 -0.16102,0.0479 -0.24279,0.0688 -0.0152,0.005 -0.0303,0.009 -0.0456,0.0127 -0.0701,0.0188 -0.14006,0.0328 -0.21016,0.049 -0.0279,0.006 -0.0559,0.0129 -0.0828,0.0188 -0.0607,0.0115 -0.12139,0.0211 -0.18095,0.0326 -0.0385,0.006 -0.0769,0.014 -0.11543,0.0187 -0.0538,0.009 -0.10742,0.0141 -0.16228,0.0211 -0.0455,0.006 -0.0899,0.0117 -0.13536,0.0164 -0.0549,0.006 -0.10972,0.009 -0.16559,0.0128 -0.0444,0.004 -0.0889,0.008 -0.13422,0.0105 -0.0876,0.005 -0.17511,0.006 -0.26387,0.006 -0.0127,0 -0.0255,0.001 -0.0385,0.001 -0.0152,0 -0.0292,-0.001 -0.0443,-0.001 -0.0865,0 -0.17397,-10e-4 -0.25917,-0.006 -0.0455,-0.002 -0.0922,-0.007 -0.13765,-0.0105 -0.0536,-0.004 -0.10743,-0.007 -0.16114,-0.0128 -0.0466,-0.005 -0.0933,-0.0117 -0.13892,-0.0164 -0.0537,-0.007 -0.10628,-0.0127 -0.15873,-0.0211 -0.0396,-0.005 -0.0794,-0.0128 -0.11911,-0.0198 -0.0594,-0.0104 -0.11796,-0.0198 -0.17752,-0.0315 -0.0292,-0.006 -0.0571,-0.014 -0.0863,-0.0198 -0.0688,-0.0152 -0.13777,-0.0303 -0.20546,-0.048 -0.0175,-0.005 -0.0338,-0.009 -0.0502,-0.014 -0.0805,-0.0211 -0.16114,-0.0432 -0.23924,-0.0677 -0.004,-0.001 -0.008,-0.002 -0.0117,-0.004 -0.18438,-0.0571 -0.36304,-0.12254 -0.53929,-0.19721 -0.4447,-0.18907 -0.86374,-0.42958 -1.24659,-0.71669 -0.0164,-0.0117 -0.0326,-0.0256 -0.049,-0.0375 -0.0583,-0.0455 -0.11784,-0.0899 -0.17511,-0.13765 -0.0432,-0.0362 -0.0852,-0.0735 -0.12723,-0.10972 -0.0292,-0.0257 -0.0607,-0.0514 -0.0899,-0.0782 -0.0725,-0.0654 -0.14361,-0.13308 -0.21256,-0.20203 -0.0701,-0.0701 -0.13765,-0.1412 -0.20432,-0.2146 -0.0385,-0.042 -0.0758,-0.0876 -0.11314,-0.13079 -0.0245,-0.0292 -0.0503,-0.0584 -0.0747,-0.0865 -0.36888,-0.44824 -0.67351,-0.95249 -0.89992,-1.49623 -0.003,-0.007 -0.007,-0.0117 -0.0105,-0.0188 -0.29409,-0.71428 -0.44939,-1.48696 -0.44939,-2.28302 v -23.90406 c 1.23376,0.0466 2.31108,0.18908 3.20402,0.42247 0.85548,0.22171 1.54766,0.52291 2.11375,0.91745 0.42489,0.29637 0.76926,0.63961 1.05637,1.05166 0.4132,0.59174 0.70729,1.3318 0.95249,2.39858 0.0818,0.3525 0.15188,0.70729 0.22527,1.08316 0.0688,0.34793 0.14006,0.7097 0.22044,1.06563 0.15416,0.67809 0.3106,1.18945 0.50666,1.66093 0.18667,0.45054 0.40266,0.84279 0.66184,1.19643 0.44113,0.60812 1.01205,1.10069 1.69712,1.46487 0.73065,0.38984 1.58855,0.64418 2.62383,0.77726 0.042,0.006 0.0829,0.009 0.12495,0.009 0.48203,0 0.89295,-0.3619 0.95479,-0.84278 0.0339,-0.25448 -0.035,-0.50895 -0.19251,-0.712 -0.15746,-0.20431 -0.38526,-0.33383 -0.63974,-0.36774 -0.92672,-0.11911 -1.64696,-0.35136 -2.20124,-0.70627 -0.40279,-0.25917 -0.7097,-0.57422 -0.96418,-0.99199 -0.19847,-0.32685 -0.36418,-0.72151 -0.50767,-1.20938 -0.15403,-0.51707 -0.2673,-1.09014 -0.38628,-1.69712 -0.069,-0.34908 -0.14006,-0.71085 -0.22298,-1.07618 -0.14578,-0.64418 -0.36521,-1.49052 -0.77256,-2.31463 -0.30933,-0.62323 -0.70044,-1.17662 -1.16494,-1.64468 -0.78552,-0.79478 -1.83604,-1.39833 -3.1211,-1.79502 -1.16494,-0.35835 -2.53051,-0.56266 -4.16808,-0.61866 v -6.96372 h 5.59447 c 0.53231,0 0.96532,-0.43428 0.96532,-0.96532 0,-0.53219 -0.43301,-0.9652 -0.96532,-0.9652 h -5.59464 v -9.547805 c 0,-0.796053 0.1553,-1.568742 0.44939,-2.283016 0.003,-0.0071 0.007,-0.01295 0.0105,-0.01878 0.22641,-0.543994 0.53104,-1.048114 0.89993,-1.496235 0.0198,-0.02349 0.0409,-0.04673 0.0607,-0.07009 0.042,-0.04901 0.0841,-0.0993 0.12838,-0.148188 0.0513,-0.05727 0.10387,-0.110983 0.15746,-0.165839 0.0152,-0.01524 0.0292,-0.03149 0.0456,-0.048 0.069,-0.06984 0.1412,-0.13765 0.21358,-0.203047 0.0211,-0.01867 0.042,-0.03619 0.0631,-0.05486 0.0513,-0.04546 0.1026,-0.08991 0.15403,-0.134219 0.0503,-0.03975 0.10045,-0.07937 0.15162,-0.11784 0.0245,-0.01867 0.048,-0.03848 0.0724,-0.05727 0.0712,-0.05244 0.14235,-0.102599 0.216,-0.152886 0.006,-0.0035 0.0104,-0.0081 0.0151,-0.01054 0.31872,-0.214853 0.65827,-0.400247 1.01433,-0.550848 0.1727,-0.07238 0.35009,-0.137778 0.52977,-0.193774 0.008,-0.0035 0.0152,-0.0058 0.0235,-0.0082 0.0747,-0.02337 0.15289,-0.04546 0.23099,-0.06641 0.0188,-0.0047 0.0375,-0.0094 0.0561,-0.01524 0.0677,-0.01753 0.13537,-0.03149 0.20305,-0.04673 0.0292,-0.0058 0.0596,-0.01396 0.0886,-0.0198 0.0596,-0.01167 0.11911,-0.02108 0.17752,-0.03149 0.0397,-0.0069 0.0794,-0.01524 0.11911,-0.02096 0.0525,-0.0082 0.10502,-0.01295 0.15873,-0.0198 0.0456,-0.0058 0.0923,-0.01295 0.13892,-0.01753 0.0537,-0.0047 0.10857,-0.0081 0.16343,-0.01167 0.0456,-0.0034 0.0899,-0.0081 0.13536,-0.01042 0.0876,-0.0046 0.17625,-0.0058 0.26501,-0.007 0.0128,0 0.0256,0 0.0385,0 0.014,0 0.0292,0 0.0443,0.0012 0.0863,0 0.17283,0.0012 0.25803,0.0058 0.0466,0.0023 0.0933,0.007 0.13994,0.01042 0.0538,0.0035 0.10742,0.0071 0.15987,0.01167 0.0467,0.0058 0.0946,0.01167 0.14247,0.01753 0.0513,0.0069 0.10387,0.01155 0.15403,0.0198 0.0419,0.0057 0.0816,0.01396 0.12254,0.02209 0.0573,0.0093 0.11555,0.01867 0.1727,0.03035 0.0315,0.0058 0.062,0.01396 0.0922,0.02108 0.0665,0.01396 0.13423,0.02921 0.20076,0.04559 0.0198,0.0058 0.0385,0.01054 0.0571,0.01524 0.0771,0.02096 0.1553,0.04317 0.2311,0.06641 0.007,0.0023 0.0152,0.0047 0.0221,0.0082 0.18095,0.05587 0.35834,0.121268 0.5299,0.193774 0.3572,0.15162 0.69688,0.336125 1.01548,0.550851 0.003,0.0023 0.007,0.0046 0.0105,0.0082 0.0747,0.05003 0.14819,0.101461 0.2207,0.156316 0.0221,0.01637 0.0455,0.03505 0.0675,0.05257 0.0525,0.04076 0.10515,0.08051 0.1553,0.122537 0.0502,0.04089 0.0992,0.08406 0.14819,0.127238 0.0234,0.02108 0.0477,0.03962 0.0701,0.0607 0.0724,0.06654 0.14349,0.134222 0.21358,0.203047 0.062,0.06197 0.1214,0.12495 0.18095,0.189075 10e-4,0.0012 10e-4,0.0023 0.002,0.0035 0.0573,0.06171 0.11327,0.125966 0.16699,0.190222 0.0115,0.01396 0.0221,0.02793 0.0326,0.04076 0.0443,0.05257 0.0876,0.106286 0.12952,0.159998 0.0175,0.02337 0.0328,0.04673 0.0502,0.06883 0.0338,0.04559 0.0678,0.09105 0.10044,0.137778 0.0211,0.02921 0.0409,0.05955 0.0607,0.08863 0.0279,0.04089 0.0561,0.08178 0.0828,0.123681 0.0222,0.03378 0.0432,0.06883 0.0643,0.10387 0.0234,0.03733 0.0467,0.07594 0.0688,0.114412 0.0234,0.0386 0.0443,0.07822 0.0665,0.118984 0.0198,0.03403 0.0396,0.06895 0.0584,0.103998 0.0234,0.04546 0.0455,0.09219 0.0688,0.13765 0.0152,0.03035 0.0305,0.0607 0.0456,0.09219 0.0245,0.05257 0.048,0.106283 0.0712,0.161139 0.0105,0.02322 0.0222,0.04673 0.0326,0.07225 0.0269,0.06311 0.0526,0.128506 0.0782,0.193903 0.005,0.01524 0.0105,0.02921 0.0164,0.04317 0.17854,0.482026 0.29764,0.993256 0.34666,1.525568 -0.71542,0.327997 -1.37497,0.759866 -1.96556,1.286206 -0.39695,0.35479 -0.43073,0.96646 -0.0771,1.36341 0.18324,0.20431 0.44469,0.32215 0.72012,0.32215 0.23695,0 0.46463,-0.0876 0.64202,-0.24507 0.74348,-0.66425 1.63173,-1.12519 2.58536,-1.35402 0.21841,-0.0514 0.43886,-0.091 0.65955,-0.11898 0.0256,-0.004 0.0514,-0.006 0.0771,-0.008 0.0816,-0.0104 0.16444,-0.0174 0.24736,-0.0221 0.0292,-0.002 0.0607,-0.005 0.091,-0.007 0.1026,-0.005 0.20647,-0.009 0.31034,-0.009 0.003,0 0.007,0 0.009,0 1.5968,10e-4 3.12694,0.63974 4.24401,1.7648 0.0747,0.0747 0.14819,0.15289 0.22069,0.2334 0.0596,0.0675 0.11784,0.13536 0.17384,0.20304 0.0526,0.0654 0.10387,0.1308 0.15289,0.19733 0.004,0.005 0.007,0.008 0.0105,0.0127 0.0456,0.062 0.0886,0.12368 0.13193,0.18679 0.007,0.0104 0.0152,0.021 0.0221,0.0315 0.0385,0.0561 0.0735,0.11213 0.10844,0.16927 0.013,0.0187 0.0245,0.0362 0.0362,0.0561 0.0292,0.0477 0.0573,0.0968 0.0852,0.14704 0.0152,0.0281 0.0326,0.0561 0.0477,0.0842 0.0222,0.0396 0.042,0.0805 0.0631,0.12127 0.0198,0.0375 0.0409,0.0771 0.0596,0.11555 0.0151,0.0315 0.0303,0.0641 0.0455,0.0958 0.021,0.0477 0.0443,0.0957 0.0643,0.14476 0.0115,0.0268 0.0221,0.0537 0.0338,0.0805 0.0221,0.0537 0.0443,0.1073 0.0641,0.16101 0.009,0.0257 0.0175,0.0514 0.0279,0.0771 0.0198,0.0559 0.0386,0.11073 0.0573,0.16685 0.008,0.0257 0.0152,0.0514 0.0234,0.0771 0.0175,0.056 0.035,0.112 0.0502,0.16927 0.008,0.0303 0.0152,0.0607 0.0234,0.0909 0.0141,0.0514 0.0269,0.10285 0.0386,0.1553 0.009,0.042 0.0187,0.0852 0.0268,0.12838 0.008,0.0399 0.0164,0.0795 0.0245,0.12025 0.0105,0.062 0.0198,0.12495 0.0292,0.18806 0.003,0.0198 0.007,0.0419 0.0104,0.063 0.035,0.2579 0.0526,0.5205 0.0526,0.78793 0,0.12254 -0.005,0.24507 -0.0128,0.36888 -0.001,0.0268 -0.004,0.0536 -0.005,0.0816 -0.009,0.11683 -0.0209,0.23467 -0.0373,0.35263 -0.003,0.0268 -0.008,0.0536 -0.0117,0.0804 -0.014,0.0982 -0.0303,0.19492 -0.0502,0.29194 -0.006,0.0315 -0.0115,0.063 -0.0174,0.0945 -0.0245,0.10857 -0.0514,0.21701 -0.0794,0.32558 -0.0105,0.0409 -0.0222,0.0818 -0.0338,0.12267 -0.0281,0.0957 -0.0573,0.19022 -0.0899,0.28482 -0.013,0.0396 -0.0281,0.0794 -0.0409,0.11911 -0.0328,0.0909 -0.0678,0.17981 -0.10387,0.26844 -0.0152,0.0373 -0.0303,0.0747 -0.0467,0.11073 -0.0455,0.10628 -0.0945,0.21371 -0.14591,0.31873 -0.014,0.0279 -0.0292,0.0559 -0.0443,0.0851 -0.0513,0.10159 -0.1073,0.20432 -0.16457,0.30463 -0.14476,0.24978 -0.30349,0.49257 -0.48076,0.72596 -0.0234,0.0269 -0.0456,0.0561 -0.0654,0.0852 -0.17854,0.22768 -0.36546,0.44126 -0.55555,0.63262 -0.34793,0.35137 -0.83923,0.71098 -1.41928,1.04113 -0.86844,0.49371 -1.81382,0.8579 -2.45483,1.07504 -0.3652,0.12495 -0.6711,0.21599 -0.86246,0.27085 -0.10388,0.0279 -0.18565,0.0514 -0.24165,0.0654 l -0.0747,0.0187 c -0.51707,0.1261 -0.83567,0.64901 -0.71084,1.16494 0.10514,0.43542 0.49027,0.73764 0.93725,0.73764 0.0769,0 0.15403,-0.009 0.22883,-0.0269 0.10145,-0.0245 1.02944,-0.25676 2.19895,-0.71669 0.70971,-0.27999 1.35986,-0.58704 1.93178,-0.9116 0.75288,-0.42717 1.35288,-0.87301 1.83719,-1.36087 0.15301,-0.15302 0.30234,-0.31645 0.4471,-0.48558 0.14705,0.002 0.29524,0.0117 0.44355,0.0235 0.006,0.002 0.0127,0.003 0.0198,0.003 0.0769,0.007 0.13067,0.0115 0.16216,0.014 0.002,0.001 0.005,0.001 0.006,0.001 0.009,0 0.0175,0.002 0.0211,0.002 h 0.001 10e-4 c 0.0315,0.005 0.0631,0.009 0.0945,0.0141 0.0537,0.008 0.10857,0.014 0.16228,0.0234 1.0038,0.1727 1.93763,0.61282 2.70676,1.2711 0.008,0.007 0.0152,0.014 0.0234,0.0208 0.048,0.0409 0.0945,0.0841 0.1412,0.12724 0.0164,0.0152 0.0338,0.0303 0.0514,0.0456 0.0351,0.0338 0.0701,0.0701 0.10514,0.10616 0.0257,0.0245 0.0513,0.0491 0.0758,0.0759 0.0198,0.0198 0.0373,0.0409 0.056,0.0607 0.0385,0.0409 0.0771,0.0818 0.11441,0.12368 v 0.001 c 0.0992,0.11199 0.19276,0.22882 0.28241,0.34894 0.009,0.014 0.0199,0.0268 0.0315,0.0409 0.0328,0.0455 0.0641,0.0933 0.0969,0.13892 0.0152,0.0221 0.0315,0.0456 0.0466,0.0688 0.0269,0.0409 0.0526,0.0817 0.0794,0.12368 0.0188,0.0303 0.0373,0.0596 0.056,0.0886 0.0222,0.0375 0.042,0.0747 0.0643,0.11098 0.0198,0.0362 0.042,0.0724 0.062,0.10857 0.0175,0.0328 0.0326,0.0654 0.0502,0.098 0.0211,0.0422 0.0443,0.0842 0.0654,0.12724 0.0128,0.0269 0.0245,0.0549 0.0373,0.0828 0.0234,0.049 0.0467,0.0982 0.0678,0.14717 0.009,0.0221 0.0174,0.0443 0.0279,0.0664 0.0221,0.0561 0.0456,0.11212 0.0677,0.16926 0.006,0.0164 0.0117,0.035 0.0188,0.0514 0.0221,0.062 0.0443,0.12368 0.0653,0.18679 0.005,0.0128 0.008,0.0257 0.0117,0.0396 0.0222,0.0665 0.0432,0.13422 0.062,0.2019 0.002,0.0105 0.005,0.0198 0.007,0.0303 0.0198,0.0712 0.0386,0.14133 0.0549,0.21358 0.002,0.009 0.004,0.0187 0.006,0.0279 0.0164,0.0724 0.0315,0.14591 0.0455,0.21841 0.002,0.0128 0.003,0.0245 0.006,0.0361 0.0117,0.0701 0.0245,0.1412 0.0338,0.21257 0.002,0.0187 0.004,0.0373 0.007,0.0549 0.008,0.0654 0.0152,0.13067 0.0221,0.19606 0.002,0.0315 0.005,0.0631 0.006,0.0945 0.005,0.0538 0.009,0.10628 0.0117,0.15873 0.004,0.0852 0.006,0.1704 0.006,0.25688 0,0.11555 -0.005,0.23225 -0.0115,0.34895 -0.007,0.11555 -0.0177,0.23339 -0.0316,0.35009 -0.001,0.005 -0.002,0.008 -0.002,0.0129 -0.0105,0.0886 -0.0247,0.17739 -0.0396,0.26374 -0.002,0.014 -0.006,0.0269 -0.008,0.0396 -0.014,0.0818 -0.0303,0.16228 -0.049,0.24279 0,0.004 -10e-4,0.007 -0.002,0.009 -0.23226,1.00621 -0.73879,1.93064 -1.45903,2.66714 -0.007,0.007 -0.0128,0.0128 -0.0198,0.0198 -0.0549,0.0561 -0.112,0.11199 -0.17028,0.16583 -0.0141,0.0128 -0.0281,0.0255 -0.0433,0.0396 -0.13181,0.11911 -0.26845,0.23454 -0.41194,0.34311 -0.6104,-0.14832 -1.23249,-0.22298 -1.8547,-0.22298 -1.80099,0 -3.5611,0.62221 -4.95943,1.74969 -0.4132,0.33383 -0.4786,0.9431 -0.14476,1.3563 0.18438,0.22882 0.45765,0.35949 0.75161,0.35949 0.21943,0 0.43428,-0.0759 0.60583,-0.21372 1.07148,-0.86487 2.36823,-1.32239 3.74789,-1.32239 0.4565,0 0.90932,0.0513 1.34932,0.15403 0.16812,0.13079 0.38056,0.20546 0.59656,0.20546 0.0268,0 0.0537,-0.001 0.0816,-0.003 0.24977,0.0898 0.48672,0.19251 0.70615,0.30577 0.005,0.002 0.009,0.005 0.0129,0.007 l 0.003,8.7e-4 v 10e-4 l 0.002,0.001 c 0.21943,0.11314 0.42946,0.24152 0.63263,0.38057 0.0187,0.0128 0.0385,0.0245 0.0571,0.0373 0.0105,0.007 0.0198,0.0164 0.0303,0.0232 0.64431,0.4612 1.19529,1.04583 1.61433,1.72061 0.0722,0.11683 0.14006,0.23581 0.20419,0.35708 0.0128,0.0234 0.0234,0.048 0.035,0.0724 0.0513,0.0992 0.10032,0.19835 0.14591,0.29879 0.007,0.0174 0.014,0.0361 0.021,0.0524 0.0467,0.11098 0.0923,0.2207 0.13308,0.33384 0.003,0.009 0.006,0.0198 0.009,0.0292 0.0432,0.12025 0.0828,0.2405 0.11784,0.36418 0.001,0.007 0.002,0.014 0.005,0.0211 0.035,0.12495 0.0665,0.25104 0.0945,0.37815 0.002,0.0152 0.005,0.0292 0.007,0.0443 0.0245,0.11911 0.0466,0.2405 0.063,0.36177 0.006,0.0433 0.009,0.0864 0.014,0.13079 0.0117,0.0933 0.0234,0.18679 0.0292,0.2814 0.0105,0.13891 0.0153,0.28012 0.0153,0.42132 0.001,0.10324 -0.001,0.20495 -0.006,0.30413 z"
       id="path8794"
       style="fill:url(#linearGradient10002);fill-opacity:1;stroke:none;stroke-width:0.126982;stroke-opacity:1" /><rect
       style="fill:url(#radialGradient10865);fill-opacity:1;stroke:none;stroke-width:2.94792;stroke-linecap:round;stroke-linejoin:round;stroke-dasharray:none;stroke-opacity:1"
       id="rect10131"
       width="39.086349"
       height="24.63979"
       x="86.521667"
       y="111.14052"
       rx="15.279796" /><text
       xml:space="preserve"
       transform="matrix(9.65895,0,0,9.65895,-3708.4914,-4045.5224)"
       id="text9978"
       style="font-style:normal;font-variant:normal;font-weight:normal;font-stretch:normal;font-size:2.851px;font-family:Chalkboard;-inkscape-font-specification:'Chalkboard, Normal';font-variant-ligatures:normal;font-variant-caps:normal;font-variant-numeric:normal;font-variant-east-asian:normal;text-align:center;white-space:pre;shape-inside:url(#rect9980);display:inline;fill:url(#linearGradient10023);fill-opacity:1;stroke:#ffffff;stroke-width:0.0621185;stroke-linecap:round;stroke-linejoin:round;stroke-dasharray:none;stroke-opacity:1"><tspan
         x="393.37358"
         y="432.48485"
         id="tspan11649">LL</tspan></text></g><style
     type="text/css"
     id="style8792">
	.st0{fill:#000000;}
</style></svg>
